<svg width="396" height="168" viewBox="0 0 396 168" fill="none" xmlns="http://www.w3.org/2000/svg">
<path d="M168 35V95H228V35H168ZM226 93H170V37H226V93Z" fill="#232323" fill-opacity="0.8"/>
<path d="M197 86H199V66H219V64H199V44H197V64H177V66H197V86Z" fill="#232323" fill-opacity="0.8"/>
<path d="M81.5566 132.165C81.4072 133.443 80.9341 134.431 80.1372 135.128C79.3459 135.82 78.2917 136.166 76.9746 136.166C75.5469 136.166 74.4014 135.654 73.5381 134.63C72.6803 133.607 72.2515 132.237 72.2515 130.521V129.359C72.2515 128.236 72.4507 127.248 72.8491 126.396C73.2531 125.544 73.8231 124.891 74.5591 124.437C75.2951 123.978 76.1473 123.748 77.1157 123.748C78.3996 123.748 79.4289 124.108 80.2036 124.827C80.9784 125.541 81.4294 126.532 81.5566 127.799H79.9546C79.8162 126.836 79.5146 126.139 79.0498 125.707C78.5905 125.275 77.9458 125.06 77.1157 125.06C76.0975 125.06 75.2979 125.436 74.7168 126.188C74.1413 126.941 73.8535 128.012 73.8535 129.401V130.571C73.8535 131.883 74.1274 132.926 74.6753 133.701C75.2231 134.475 75.9896 134.863 76.9746 134.863C77.86 134.863 78.5379 134.664 79.0083 134.265C79.4842 133.861 79.7996 133.161 79.9546 132.165H81.5566ZM85.0347 128.106C85.7153 127.27 86.6007 126.853 87.6909 126.853C89.589 126.853 90.5464 127.923 90.563 130.065V136H89.0273V130.057C89.0218 129.409 88.8724 128.931 88.5791 128.621C88.2913 128.311 87.8403 128.156 87.2261 128.156C86.728 128.156 86.2909 128.289 85.9146 128.554C85.5382 128.82 85.245 129.168 85.0347 129.6V136H83.499V123.25H85.0347V128.106ZM92.4556 131.426C92.4556 130.546 92.6271 129.755 92.9702 129.052C93.3188 128.349 93.8003 127.807 94.4146 127.425C95.0343 127.043 95.7399 126.853 96.5312 126.853C97.7542 126.853 98.742 127.276 99.4946 128.123C100.253 128.969 100.632 130.095 100.632 131.501V131.609C100.632 132.483 100.463 133.269 100.125 133.966C99.7935 134.658 99.3148 135.198 98.6895 135.585C98.0697 135.972 97.3558 136.166 96.5479 136.166C95.3304 136.166 94.3426 135.743 93.5845 134.896C92.8319 134.049 92.4556 132.929 92.4556 131.534V131.426ZM93.9995 131.609C93.9995 132.605 94.2292 133.405 94.6885 134.008C95.1533 134.611 95.7731 134.913 96.5479 134.913C97.3281 134.913 97.9479 134.608 98.4072 134C98.8665 133.385 99.0962 132.528 99.0962 131.426C99.0962 130.441 98.861 129.644 98.3906 129.036C97.9258 128.421 97.306 128.114 96.5312 128.114C95.7731 128.114 95.1616 128.416 94.6968 129.019C94.2319 129.622 93.9995 130.486 93.9995 131.609ZM102.151 131.426C102.151 130.546 102.322 129.755 102.666 129.052C103.014 128.349 103.496 127.807 104.11 127.425C104.73 127.043 105.435 126.853 106.227 126.853C107.45 126.853 108.437 127.276 109.19 128.123C109.948 128.969 110.327 130.095 110.327 131.501V131.609C110.327 132.483 110.158 133.269 109.821 133.966C109.489 134.658 109.01 135.198 108.385 135.585C107.765 135.972 107.051 136.166 106.243 136.166C105.026 136.166 104.038 135.743 103.28 134.896C102.527 134.049 102.151 132.929 102.151 131.534V131.426ZM103.695 131.609C103.695 132.605 103.924 133.405 104.384 134.008C104.849 134.611 105.468 134.913 106.243 134.913C107.023 134.913 107.643 134.608 108.103 134C108.562 133.385 108.792 132.528 108.792 131.426C108.792 130.441 108.556 129.644 108.086 129.036C107.621 128.421 107.001 128.114 106.227 128.114C105.468 128.114 104.857 128.416 104.392 129.019C103.927 129.622 103.695 130.486 103.695 131.609ZM117.482 133.618C117.482 133.203 117.325 132.882 117.009 132.655C116.699 132.422 116.154 132.223 115.374 132.057C114.599 131.891 113.982 131.692 113.523 131.459C113.069 131.227 112.732 130.95 112.51 130.629C112.294 130.308 112.187 129.927 112.187 129.484C112.187 128.748 112.496 128.125 113.116 127.616C113.742 127.107 114.538 126.853 115.507 126.853C116.525 126.853 117.35 127.115 117.98 127.641C118.617 128.167 118.935 128.839 118.935 129.658H117.391C117.391 129.238 117.211 128.875 116.852 128.571C116.497 128.266 116.049 128.114 115.507 128.114C114.948 128.114 114.511 128.236 114.195 128.479C113.88 128.723 113.722 129.041 113.722 129.434C113.722 129.805 113.869 130.084 114.162 130.272C114.455 130.461 114.984 130.64 115.748 130.812C116.517 130.984 117.139 131.188 117.615 131.426C118.091 131.664 118.443 131.952 118.669 132.29C118.902 132.622 119.018 133.028 119.018 133.51C119.018 134.312 118.697 134.957 118.055 135.444C117.413 135.925 116.58 136.166 115.557 136.166C114.837 136.166 114.201 136.039 113.647 135.784C113.094 135.53 112.66 135.175 112.344 134.722C112.034 134.262 111.879 133.767 111.879 133.236H113.415C113.443 133.75 113.647 134.16 114.029 134.464C114.417 134.763 114.926 134.913 115.557 134.913C116.138 134.913 116.603 134.796 116.951 134.564C117.305 134.326 117.482 134.011 117.482 133.618ZM124.746 136.166C123.528 136.166 122.538 135.768 121.774 134.971C121.01 134.168 120.628 133.097 120.628 131.758V131.476C120.628 130.585 120.797 129.791 121.135 129.094C121.478 128.391 121.954 127.843 122.562 127.45C123.177 127.052 123.841 126.853 124.555 126.853C125.722 126.853 126.63 127.237 127.277 128.006C127.925 128.776 128.249 129.877 128.249 131.31V131.949H122.164C122.186 132.835 122.444 133.551 122.936 134.099C123.434 134.641 124.065 134.913 124.829 134.913C125.371 134.913 125.83 134.802 126.207 134.581C126.583 134.359 126.912 134.066 127.194 133.701L128.132 134.431C127.38 135.588 126.251 136.166 124.746 136.166ZM124.555 128.114C123.935 128.114 123.415 128.341 122.994 128.795C122.574 129.243 122.313 129.874 122.214 130.688H126.713V130.571C126.669 129.791 126.458 129.188 126.082 128.762C125.706 128.33 125.197 128.114 124.555 128.114ZM137.188 133.75L139.28 127.019H140.924L137.313 137.386C136.754 138.88 135.866 139.627 134.648 139.627L134.358 139.603L133.785 139.495V138.25L134.2 138.283C134.72 138.283 135.124 138.178 135.412 137.967C135.705 137.757 135.946 137.372 136.134 136.813L136.475 135.9L133.271 127.019H134.947L137.188 133.75ZM141.762 131.426C141.762 130.546 141.934 129.755 142.277 129.052C142.625 128.349 143.107 127.807 143.721 127.425C144.341 127.043 145.047 126.853 145.838 126.853C147.061 126.853 148.049 127.276 148.801 128.123C149.559 128.969 149.938 130.095 149.938 131.501V131.609C149.938 132.483 149.77 133.269 149.432 133.966C149.1 134.658 148.621 135.198 147.996 135.585C147.376 135.972 146.662 136.166 145.854 136.166C144.637 136.166 143.649 135.743 142.891 134.896C142.139 134.049 141.762 132.929 141.762 131.534V131.426ZM143.306 131.609C143.306 132.605 143.536 133.405 143.995 134.008C144.46 134.611 145.08 134.913 145.854 134.913C146.635 134.913 147.255 134.608 147.714 134C148.173 133.385 148.403 132.528 148.403 131.426C148.403 130.441 148.168 129.644 147.697 129.036C147.232 128.421 146.613 128.114 145.838 128.114C145.08 128.114 144.468 128.416 144.003 129.019C143.539 129.622 143.306 130.486 143.306 131.609ZM157.409 135.112C156.812 135.815 155.934 136.166 154.778 136.166C153.82 136.166 153.09 135.889 152.586 135.336C152.088 134.777 151.837 133.952 151.831 132.862V127.019H153.367V132.821C153.367 134.182 153.92 134.863 155.027 134.863C156.2 134.863 156.98 134.426 157.368 133.551V127.019H158.903V136H157.442L157.409 135.112ZM165.585 128.396C165.353 128.358 165.101 128.338 164.83 128.338C163.823 128.338 163.139 128.767 162.78 129.625V136H161.244V127.019H162.738L162.763 128.056C163.267 127.254 163.981 126.853 164.905 126.853C165.204 126.853 165.431 126.891 165.585 126.969V128.396ZM171.736 136V128.206H170.317V127.019H171.736V126.255C171.736 125.253 172.021 124.473 172.591 123.914C173.167 123.355 173.978 123.076 175.023 123.076C175.643 123.076 176.426 123.244 177.373 123.582L177.115 124.877C176.424 124.6 175.765 124.462 175.14 124.462C174.481 124.462 174.005 124.611 173.712 124.91C173.424 125.203 173.28 125.646 173.28 126.238V127.019H175.115V128.206H173.28V136H171.736ZM178.136 136H176.592V127.019H178.136V136ZM182.303 136H180.768V123.25H182.303V136ZM188.496 136.166C187.278 136.166 186.288 135.768 185.524 134.971C184.76 134.168 184.378 133.097 184.378 131.758V131.476C184.378 130.585 184.547 129.791 184.885 129.094C185.228 128.391 185.704 127.843 186.312 127.45C186.927 127.052 187.591 126.853 188.305 126.853C189.472 126.853 190.38 127.237 191.027 128.006C191.675 128.776 191.999 129.877 191.999 131.31V131.949H185.914C185.936 132.835 186.194 133.551 186.686 134.099C187.184 134.641 187.815 134.913 188.579 134.913C189.121 134.913 189.58 134.802 189.957 134.581C190.333 134.359 190.662 134.066 190.944 133.701L191.882 134.431C191.13 135.588 190.001 136.166 188.496 136.166ZM188.305 128.114C187.685 128.114 187.165 128.341 186.744 128.795C186.324 129.243 186.063 129.874 185.964 130.688H190.463V130.571C190.419 129.791 190.208 129.188 189.832 128.762C189.456 128.33 188.947 128.114 188.305 128.114ZM197.593 131.426C197.593 130.546 197.765 129.755 198.108 129.052C198.457 128.349 198.938 127.807 199.552 127.425C200.172 127.043 200.878 126.853 201.669 126.853C202.892 126.853 203.88 127.276 204.632 128.123C205.39 128.969 205.77 130.095 205.77 131.501V131.609C205.77 132.483 205.601 133.269 205.263 133.966C204.931 134.658 204.452 135.198 203.827 135.585C203.207 135.972 202.493 136.166 201.686 136.166C200.468 136.166 199.48 135.743 198.722 134.896C197.97 134.049 197.593 132.929 197.593 131.534V131.426ZM199.137 131.609C199.137 132.605 199.367 133.405 199.826 134.008C200.291 134.611 200.911 134.913 201.686 134.913C202.466 134.913 203.086 134.608 203.545 134C204.004 133.385 204.234 132.528 204.234 131.426C204.234 130.441 203.999 129.644 203.528 129.036C203.063 128.421 202.444 128.114 201.669 128.114C200.911 128.114 200.299 128.416 199.834 129.019C199.37 129.622 199.137 130.486 199.137 131.609ZM212.037 128.396C211.804 128.358 211.552 128.338 211.281 128.338C210.274 128.338 209.591 128.767 209.231 129.625V136H207.695V127.019H209.189L209.214 128.056C209.718 127.254 210.432 126.853 211.356 126.853C211.655 126.853 211.882 126.891 212.037 126.969V128.396ZM217.299 131.435C217.299 130.057 217.626 128.95 218.279 128.114C218.932 127.273 219.787 126.853 220.844 126.853C221.895 126.853 222.728 127.212 223.342 127.932V123.25H224.878V136H223.467L223.392 135.037C222.778 135.79 221.923 136.166 220.827 136.166C219.787 136.166 218.937 135.74 218.279 134.888C217.626 134.035 217.299 132.923 217.299 131.551V131.435ZM218.835 131.609C218.835 132.627 219.045 133.424 219.466 134C219.886 134.575 220.467 134.863 221.209 134.863C222.183 134.863 222.894 134.426 223.342 133.551V129.426C222.883 128.579 222.177 128.156 221.226 128.156C220.473 128.156 219.886 128.446 219.466 129.027C219.045 129.608 218.835 130.469 218.835 131.609ZM231.61 128.396C231.377 128.358 231.126 128.338 230.854 128.338C229.847 128.338 229.164 128.767 228.804 129.625V136H227.269V127.019H228.763L228.788 128.056C229.291 127.254 230.005 126.853 230.929 126.853C231.228 126.853 231.455 126.891 231.61 126.969V128.396ZM238.242 136C238.154 135.823 238.082 135.507 238.026 135.054C237.312 135.795 236.46 136.166 235.47 136.166C234.584 136.166 233.857 135.917 233.287 135.419C232.722 134.915 232.44 134.279 232.44 133.51C232.44 132.575 232.794 131.85 233.502 131.335C234.216 130.815 235.218 130.555 236.507 130.555H238.001V129.849C238.001 129.312 237.841 128.886 237.52 128.571C237.199 128.25 236.726 128.089 236.101 128.089C235.553 128.089 235.093 128.228 234.723 128.504C234.352 128.781 234.167 129.116 234.167 129.509H232.623C232.623 129.061 232.78 128.629 233.096 128.214C233.417 127.793 233.848 127.461 234.391 127.218C234.938 126.974 235.539 126.853 236.192 126.853C237.227 126.853 238.037 127.113 238.624 127.633C239.211 128.147 239.515 128.859 239.537 129.766V133.9C239.537 134.724 239.642 135.38 239.853 135.867V136H238.242ZM235.694 134.83C236.175 134.83 236.632 134.705 237.063 134.456C237.495 134.207 237.808 133.883 238.001 133.485V131.642H236.798C234.916 131.642 233.976 132.193 233.976 133.294C233.976 133.775 234.136 134.152 234.457 134.423C234.778 134.694 235.19 134.83 235.694 134.83ZM241.579 131.435C241.579 130.035 241.903 128.922 242.55 128.098C243.198 127.268 244.056 126.853 245.124 126.853C246.219 126.853 247.074 127.24 247.688 128.015L247.763 127.019H249.166V135.784C249.166 136.946 248.82 137.862 248.128 138.532C247.442 139.201 246.518 139.536 245.356 139.536C244.708 139.536 244.075 139.398 243.455 139.121C242.835 138.844 242.362 138.465 242.036 137.984L242.833 137.062C243.491 137.876 244.296 138.283 245.248 138.283C245.995 138.283 246.576 138.072 246.991 137.652C247.412 137.231 247.622 136.639 247.622 135.875V135.104C247.008 135.812 246.169 136.166 245.107 136.166C244.056 136.166 243.203 135.743 242.55 134.896C241.903 134.049 241.579 132.896 241.579 131.435ZM243.123 131.609C243.123 132.622 243.331 133.418 243.746 134C244.161 134.575 244.742 134.863 245.489 134.863C246.457 134.863 247.168 134.423 247.622 133.543V129.442C247.152 128.585 246.446 128.156 245.505 128.156C244.758 128.156 244.174 128.446 243.754 129.027C243.333 129.608 243.123 130.469 243.123 131.609ZM257.375 136H255.84V127.019H257.375V136ZM255.715 124.636C255.715 124.387 255.79 124.177 255.939 124.005C256.094 123.834 256.321 123.748 256.62 123.748C256.919 123.748 257.146 123.834 257.301 124.005C257.456 124.177 257.533 124.387 257.533 124.636C257.533 124.885 257.456 125.093 257.301 125.259C257.146 125.425 256.919 125.508 256.62 125.508C256.321 125.508 256.094 125.425 255.939 125.259C255.79 125.093 255.715 124.885 255.715 124.636ZM261.924 124.844V127.019H263.601V128.206H261.924V133.775C261.924 134.135 261.999 134.406 262.148 134.589C262.298 134.766 262.552 134.854 262.912 134.854C263.089 134.854 263.333 134.821 263.643 134.755V136C263.239 136.111 262.846 136.166 262.464 136.166C261.778 136.166 261.26 135.958 260.912 135.543C260.563 135.128 260.389 134.539 260.389 133.775V128.206H258.753V127.019H260.389V124.844H261.924ZM269.212 131.426C269.212 130.546 269.384 129.755 269.727 129.052C270.076 128.349 270.557 127.807 271.171 127.425C271.791 127.043 272.497 126.853 273.288 126.853C274.511 126.853 275.499 127.276 276.251 128.123C277.01 128.969 277.389 130.095 277.389 131.501V131.609C277.389 132.483 277.22 133.269 276.882 133.966C276.55 134.658 276.072 135.198 275.446 135.585C274.826 135.972 274.113 136.166 273.305 136.166C272.087 136.166 271.099 135.743 270.341 134.896C269.589 134.049 269.212 132.929 269.212 131.534V131.426ZM270.756 131.609C270.756 132.605 270.986 133.405 271.445 134.008C271.91 134.611 272.53 134.913 273.305 134.913C274.085 134.913 274.705 134.608 275.164 134C275.623 133.385 275.853 132.528 275.853 131.426C275.853 130.441 275.618 129.644 275.147 129.036C274.683 128.421 274.063 128.114 273.288 128.114C272.53 128.114 271.918 128.416 271.454 129.019C270.989 129.622 270.756 130.486 270.756 131.609ZM280.767 127.019L280.817 128.147C281.503 127.284 282.4 126.853 283.506 126.853C285.404 126.853 286.362 127.923 286.378 130.065V136H284.843V130.057C284.837 129.409 284.688 128.931 284.395 128.621C284.107 128.311 283.656 128.156 283.042 128.156C282.543 128.156 282.106 128.289 281.73 128.554C281.354 128.82 281.06 129.168 280.85 129.6V136H279.314V127.019H280.767ZM294.447 128.106C295.127 127.27 296.013 126.853 297.103 126.853C299.001 126.853 299.958 127.923 299.975 130.065V136H298.439V130.057C298.434 129.409 298.285 128.931 297.991 128.621C297.703 128.311 297.252 128.156 296.638 128.156C296.14 128.156 295.703 128.289 295.327 128.554C294.95 128.82 294.657 129.168 294.447 129.6V136H292.911V123.25H294.447V128.106ZM306.001 136.166C304.784 136.166 303.793 135.768 303.03 134.971C302.266 134.168 301.884 133.097 301.884 131.758V131.476C301.884 130.585 302.053 129.791 302.391 129.094C302.734 128.391 303.21 127.843 303.818 127.45C304.433 127.052 305.097 126.853 305.811 126.853C306.978 126.853 307.886 127.237 308.533 128.006C309.181 128.776 309.504 129.877 309.504 131.31V131.949H303.42C303.442 132.835 303.699 133.551 304.192 134.099C304.69 134.641 305.321 134.913 306.084 134.913C306.627 134.913 307.086 134.802 307.462 134.581C307.839 134.359 308.168 134.066 308.45 133.701L309.388 134.431C308.636 135.588 307.507 136.166 306.001 136.166ZM305.811 128.114C305.191 128.114 304.671 128.341 304.25 128.795C303.829 129.243 303.569 129.874 303.47 130.688H307.969V130.571C307.924 129.791 307.714 129.188 307.338 128.762C306.962 128.33 306.452 128.114 305.811 128.114ZM315.63 128.396C315.398 128.358 315.146 128.338 314.875 128.338C313.868 128.338 313.184 128.767 312.825 129.625V136H311.289V127.019H312.783L312.808 128.056C313.312 127.254 314.026 126.853 314.95 126.853C315.249 126.853 315.475 126.891 315.63 126.969V128.396ZM320.611 136.166C319.393 136.166 318.403 135.768 317.639 134.971C316.875 134.168 316.494 133.097 316.494 131.758V131.476C316.494 130.585 316.662 129.791 317 129.094C317.343 128.391 317.819 127.843 318.428 127.45C319.042 127.052 319.706 126.853 320.42 126.853C321.588 126.853 322.495 127.237 323.143 128.006C323.79 128.776 324.114 129.877 324.114 131.31V131.949H318.029C318.051 132.835 318.309 133.551 318.801 134.099C319.299 134.641 319.93 134.913 320.694 134.913C321.236 134.913 321.695 134.802 322.072 134.581C322.448 134.359 322.777 134.066 323.06 133.701L323.998 134.431C323.245 135.588 322.116 136.166 320.611 136.166ZM320.42 128.114C319.8 128.114 319.28 128.341 318.859 128.795C318.439 129.243 318.179 129.874 318.079 130.688H322.578V130.571C322.534 129.791 322.324 129.188 321.947 128.762C321.571 128.33 321.062 128.114 320.42 128.114Z" fill="black" fill-opacity="0.8"/>
</svg>
